<?xml version="1.0" encoding="utf-8"?>
<!-- Generator: Adobe Illustrator 16.0.0, SVG Export Plug-In . SVG Version: 6.00 Build 0)  -->
<!DOCTYPE svg PUBLIC "-//W3C//DTD SVG 1.1//EN" "http://www.w3.org/Graphics/SVG/1.1/DTD/svg11.dtd">
<svg version="1.1" xmlns="http://www.w3.org/2000/svg" xmlns:xlink="http://www.w3.org/1999/xlink" x="0px" y="0px"
	 width="17.998px" height="21.998px" viewBox="0 0 17.998 21.998" enable-background="new 0 0 17.998 21.998" xml:space="preserve">
<g id="Shape_3_1_" enable-background="new    ">
	<g id="Shape_3">
		<g>
			<path fill="#FFFFFF" d="M8.999,0C6.073,0,4,3.142,4,3.142v4.19h2v-4.19c0,0,1.619-1.046,3-1.046c1.602,0,3,1.046,3,1.046v4.19h2
				v-4.19C13.999,3.142,11.749,0,8.999,0z"/>
		</g>
	</g>
</g>
<g id="Ellipse_1_1_" enable-background="new    ">
	<g id="Ellipse_1">
		<g>
			<path fill="#FFFFFF" d="M10.999,13.618c0-1.157-0.896-2.096-2-2.096c-1.104,0-2,0.938-2,2.096c0,0.773,0.404,1.441,1,1.805v2.385
				h2v-2.385C10.593,15.059,10.999,14.391,10.999,13.618z"/>
		</g>
	</g>
</g>
<g id="Shape_1_1_" enable-background="new    ">
	<g id="Shape_1">
		<g>
			<rect y="8.38" fill="#FFFFFF" width="2" height="12.57"/>
		</g>
	</g>
</g>
<g id="Shape_2_1_" enable-background="new    ">
	<g id="Shape_2">
		<g>
			<rect x="1" y="7.332" fill="#FFFFFF" width="15.998" height="2.096"/>
		</g>
	</g>
</g>
<g id="Shape_2_copy_1_" enable-background="new    ">
	<g id="Shape_2_copy">
		<g>
			<rect x="1" y="19.902" fill="#FFFFFF" width="15.998" height="2.096"/>
		</g>
	</g>
</g>
<g id="Shape_1_copy_1_" enable-background="new    ">
	<g id="Shape_1_copy">
		<g>
			<rect x="15.999" y="8.38" fill="#FFFFFF" width="1.999" height="12.57"/>
		</g>
	</g>
</g>
</svg>
